<svg width="224" height="99" viewBox="0 0 224 99" fill="none" xmlns="http://www.w3.org/2000/svg">
<path d="M5.616 26.08H18.36C29.016 26.08 36.456 28.6 40.68 33.64C44.952 38.68 47.088 44.68 47.088 51.64C47.088 56.488 46.176 60.976 44.352 65.104C42.528 69.184 39.504 72.52 35.28 75.112C31.104 77.704 25.608 79 18.792 79H5.616V26.08ZM19.656 71.872C26.28 71.872 31.08 70 34.056 66.256C37.08 62.464 38.592 57.712 38.592 52C38.592 46.432 37.08 41.896 34.056 38.392C31.032 34.888 26.232 33.136 19.656 33.136H13.68V71.872H19.656Z" fill="#4286F3"/>
<path d="M70.52 79.72C67.112 79.72 64.088 78.952 61.448 77.416C58.808 75.88 56.768 73.792 55.328 71.152C53.888 68.512 53.168 65.584 53.168 62.368C53.168 59.2 53.864 56.296 55.256 53.656C56.696 51.016 58.736 48.928 61.376 47.392C64.016 45.856 67.064 45.088 70.52 45.088C73.976 45.088 77 45.856 79.592 47.392C82.232 48.928 84.248 51.016 85.64 53.656C87.08 56.296 87.8 59.2 87.8 62.368C87.8 65.584 87.08 68.512 85.64 71.152C84.2 73.792 82.16 75.88 79.52 77.416C76.928 78.952 73.928 79.72 70.52 79.72ZM70.736 73.384C73.52 73.384 75.704 72.352 77.288 70.288C78.92 68.224 79.736 65.632 79.736 62.512C79.736 59.392 78.872 56.776 77.144 54.664C75.416 52.504 73.136 51.424 70.304 51.424C67.568 51.424 65.36 52.48 63.68 54.592C62.048 56.704 61.232 59.344 61.232 62.512C61.232 65.584 62.12 68.176 63.896 70.288C65.672 72.352 67.952 73.384 70.736 73.384Z" fill="#EA4333"/>
<path d="M110.52 79.72C107.112 79.72 104.088 78.952 101.448 77.416C98.808 75.88 96.768 73.792 95.328 71.152C93.888 68.512 93.168 65.584 93.168 62.368C93.168 59.2 93.864 56.296 95.256 53.656C96.696 51.016 98.736 48.928 101.376 47.392C104.016 45.856 107.064 45.088 110.52 45.088C113.976 45.088 117 45.856 119.592 47.392C122.232 48.928 124.248 51.016 125.64 53.656C127.08 56.296 127.8 59.2 127.8 62.368C127.8 65.584 127.08 68.512 125.64 71.152C124.2 73.792 122.16 75.88 119.52 77.416C116.928 78.952 113.928 79.72 110.52 79.72ZM110.736 73.384C113.52 73.384 115.704 72.352 117.288 70.288C118.92 68.224 119.736 65.632 119.736 62.512C119.736 59.392 118.872 56.776 117.144 54.664C115.416 52.504 113.136 51.424 110.304 51.424C107.568 51.424 105.36 52.48 103.68 54.592C102.048 56.704 101.232 59.344 101.232 62.512C101.232 65.584 102.12 68.176 103.896 70.288C105.672 72.352 107.952 73.384 110.736 73.384Z" fill="#FBBD04"/>
<path d="M148.536 79.64C145.891 79.64 143.437 79.0213 141.176 77.784C138.957 76.504 137.165 74.712 135.8 72.408C134.477 70.0613 133.816 67.3307 133.816 64.216C133.816 59.5653 135.117 55.8533 137.72 53.08C140.323 50.264 143.843 48.856 148.28 48.856C150.755 48.856 153.016 49.4747 155.064 50.712C157.112 51.9067 158.499 53.3573 159.224 55.064L158.904 50.072V31.96H165.688V79H159.096L158.968 73.816C158.243 75.352 156.92 76.7173 155 77.912C153.08 79.064 150.925 79.64 148.536 79.64ZM149.688 73.816C152.12 73.816 154.168 72.984 155.832 71.32C157.496 69.6133 158.328 67.3947 158.328 64.664V64.216C158.328 62.3813 157.944 60.7387 157.176 59.288C156.408 57.8373 155.363 56.7067 154.04 55.896C152.717 55.0853 151.267 54.68 149.688 54.68C146.957 54.68 144.845 55.576 143.352 57.368C141.859 59.1173 141.112 61.4 141.112 64.216C141.112 67.0747 141.837 69.4 143.288 71.192C144.781 72.9413 146.915 73.816 149.688 73.816Z" fill="#4286F3"/>
<path d="M176.12 31.96H182.968V79H176.12V31.96Z" fill="#33A951"/>
<path d="M207.432 79.64C203.933 79.64 201.011 78.9573 198.664 77.592C196.317 76.184 194.589 74.328 193.48 72.024C192.371 69.6773 191.816 67.1173 191.816 64.344C191.816 61.2293 192.456 58.4987 193.736 56.152C195.059 53.8053 196.872 52.0133 199.176 50.776C201.48 49.496 204.083 48.856 206.984 48.856C211.507 48.856 214.856 50.1147 217.032 52.632C219.251 55.1067 220.36 58.6053 220.36 63.128C220.36 64.28 220.296 65.4747 220.168 66.712H199.048C199.517 69.3147 200.435 71.192 201.8 72.344C203.208 73.496 205.149 74.072 207.624 74.072C209.672 74.072 211.357 73.9013 212.68 73.56C214.003 73.2187 215.219 72.7493 216.328 72.152L218.44 77.08C217.373 77.7627 215.923 78.36 214.088 78.872C212.253 79.384 210.035 79.64 207.432 79.64ZM213.64 61.912C213.683 59.2667 213.107 57.4107 211.912 56.344C210.717 55.2347 209.011 54.68 206.792 54.68C202.312 54.68 199.731 57.0907 199.048 61.912H213.64Z" fill="#EA4333"/>
</svg>
